<?xml version="1.0" encoding="UTF-8" standalone="no"?>
<!-- Created with Inkscape (http://www.inkscape.org/) -->

<svg
   xmlns:dc="http://purl.org/dc/elements/1.1/"
   xmlns:cc="http://creativecommons.org/ns#"
   xmlns:rdf="http://www.w3.org/1999/02/22-rdf-syntax-ns#"
   xmlns:svg="http://www.w3.org/2000/svg"
   xmlns="http://www.w3.org/2000/svg"
   xmlns:sodipodi="http://sodipodi.sourceforge.net/DTD/sodipodi-0.dtd"
   xmlns:inkscape="http://www.inkscape.org/namespaces/inkscape"
   width="7.9375076mm"
   height="7.9375014mm"
   viewBox="0 0 7.9375077 7.9375014"
   version="1.1"
   id="svg405"
   inkscape:version="0.92.3 (2405546, 2018-03-11)"
   sodipodi:docname="github_logo.svg">
  <defs
     id="defs399" />
  <sodipodi:namedview
     id="base"
     pagecolor="#ffffff"
     bordercolor="#666666"
     borderopacity="1.0"
     inkscape:pageopacity="0.0"
     inkscape:pageshadow="2"
     inkscape:zoom="11.2"
     inkscape:cx="28.72534"
     inkscape:cy="-9.0018376"
     inkscape:document-units="mm"
     inkscape:current-layer="layer1"
     showgrid="false"
     inkscape:window-width="1920"
     inkscape:window-height="1025"
     inkscape:window-x="0"
     inkscape:window-y="27"
     inkscape:window-maximized="1"
     fit-margin-top="0"
     fit-margin-left="0"
     fit-margin-right="0"
     fit-margin-bottom="0" />
  <metadata
     id="metadata402">
    <rdf:RDF>
      <cc:Work
         rdf:about="">
        <dc:format>image/svg+xml</dc:format>
        <dc:type
           rdf:resource="http://purl.org/dc/dcmitype/StillImage" />
        <dc:title />
      </cc:Work>
    </rdf:RDF>
  </metadata>
  <g
     inkscape:label="Layer 1"
     inkscape:groupmode="layer"
     id="layer1"
     transform="translate(0,-289.0625)">
    <path
       d="M 3.9684319,289.0625 C 1.7768764,289.0625 0,290.88431 0,293.13181 c 0,1.79784 1.1370778,3.3229 2.7141669,3.86122 0.1985648,0.0372 0.2709297,-0.0884 0.2709297,-0.19634 0,-0.0964 -0.00345,-0.35247 -0.00552,-0.69196 -1.1039409,0.24581 -1.3368649,-0.54557 -1.3368649,-0.54557 -0.1805324,-0.46988 -0.4407435,-0.59503 -0.4407435,-0.59503 -0.36034658,-0.25256 0.02728,-0.24756 0.02728,-0.24756 0.3983522,0.029 0.6078846,0.41942 0.6078846,0.41942 0.3540133,0.62177 0.9290026,0.44216 1.1551032,0.33823 0.036051,-0.26304 0.1383897,-0.4424 0.2519235,-0.54407 -0.8812452,-0.10267 -1.807817,-0.45189 -1.807817,-2.01118 0,-0.44415 0.1547164,-0.80736 0.4085874,-1.09189 -0.040954,-0.10292 -0.1771275,-0.51659 0.038745,-1.07691 0,0 0.3333011,-0.10941 1.0915164,0.41718 0.316484,-0.0902 0.6561254,-0.13539 0.9935632,-0.1369 0.3369615,0.002 0.676596,0.0468 0.9935705,0.1369 0.7577249,-0.52659 1.0902941,-0.41718 1.0902941,-0.41718 0.2165972,0.56032 0.080404,0.97399 0.039504,1.07691 0.2543615,0.28453 0.4080974,0.64774 0.4080974,1.09189 0,1.56328 -0.9280292,1.90727 -1.8122028,2.00794 0.1425335,0.12564 0.2694728,0.37395 0.2694728,0.75365 0,0.54383 -0.00483,0.98273 -0.00483,1.11613 0,0.10892 0.071384,0.23557 0.2728776,0.19585 1.5758725,-0.53933 2.7119693,-2.06339 2.7119693,-3.86073 -1.2e-6,-2.2475 -1.7771194,-4.06931 -3.9691581,-4.06931"
       style="fill:#1b1817;fill-opacity:0.49803922;fill-rule:evenodd;stroke:none;stroke-width:0.24670352"
       id="path24"
       inkscape:connector-curvature="0" />
  </g>
</svg>
