<?xml version="1.0" encoding="UTF-8" standalone="no"?>
<svg
   xmlns:dc="http://purl.org/dc/elements/1.1/"
   xmlns:cc="http://creativecommons.org/ns#"
   xmlns:rdf="http://www.w3.org/1999/02/22-rdf-syntax-ns#"
   xmlns:svg="http://www.w3.org/2000/svg"
   xmlns="http://www.w3.org/2000/svg"
   xmlns:sodipodi="http://sodipodi.sourceforge.net/DTD/sodipodi-0.dtd"
   xmlns:inkscape="http://www.inkscape.org/namespaces/inkscape"
   height="30.000263"
   width="33.348537"
   viewBox="0 0 31.264382 28.125215"
   version="1.1"
   id="svg4"
   sodipodi:docname="itchio_logo.svg"
   inkscape:version="0.92.3 (2405546, 2018-03-11)">
  <metadata
     id="metadata10">
    <rdf:RDF>
      <cc:Work
         rdf:about="">
        <dc:format>image/svg+xml</dc:format>
        <dc:type
           rdf:resource="http://purl.org/dc/dcmitype/StillImage" />
        <dc:title></dc:title>
      </cc:Work>
    </rdf:RDF>
  </metadata>
  <defs
     id="defs8" />
  <sodipodi:namedview
     pagecolor="#ffffff"
     bordercolor="#666666"
     borderopacity="1"
     objecttolerance="10"
     gridtolerance="10"
     guidetolerance="10"
     inkscape:pageopacity="0"
     inkscape:pageshadow="2"
     inkscape:window-width="1920"
     inkscape:window-height="1025"
     id="namedview6"
     showgrid="false"
     fit-margin-top="0"
     fit-margin-left="0"
     fit-margin-right="0"
     fit-margin-bottom="0"
     inkscape:zoom="8.0186196"
     inkscape:cx="15.572031"
     inkscape:cy="42.747235"
     inkscape:window-x="0"
     inkscape:window-y="27"
     inkscape:window-maximized="1"
     inkscape:current-layer="svg4" />
  <path
     d="M 4.0760466,0.17335728 C 2.7123102,0.98308728 0.02548325,4.0697473 0,4.8792173 v 1.33991 c 0,1.69846 1.5876068,3.19127 3.0290671,3.19127 1.7308226,0 3.17292,-1.43445 3.1730474,-3.13699 0,1.70254 1.3926599,3.13699 3.1236099,3.13699 1.7310776,0 3.0790146,-1.43445 3.0790146,-3.13699 0,1.70254 1.480832,3.13699 3.211782,3.13699 h 0.03134 c 1.731078,0 3.211909,-1.43445 3.211909,-3.13699 0,1.70254 1.348065,3.13699 3.078887,3.13699 1.73095,0 3.12361,-1.43445 3.12361,-3.13699 0,1.70254 1.442352,3.13699 3.173048,3.13699 1.44146,0 3.029067,-1.49255 3.029067,-3.19127 v -1.33991 c -0.02548,-0.8096 -2.71231,-3.89638002 -4.075792,-4.70586002 -4.23863,-0.14882 -7.177104,-0.17456 -11.556529,-0.17391999763 C 11.252764,-1.8271763e-4 5.2822924,0.06823728 4.0757877,0.17335728 Z M 12.382823,8.6104773 a 3.570841,3.570841 0 0 1 -0.60905,0.78425 C 11.120383,10.033597 10.224774,10.429607 9.237425,10.429607 A 3.6290703,3.6290703 0 0 1 6.6957251,9.3942173 c -0.2367394,-0.2319 -0.4166512,-0.47985 -0.5814004,-0.76857 l -7.645e-4,5.1e-4 c -0.1646218,0.28923 -0.3939711,0.53705 -0.6312202,0.76921 A 3.6313638,3.6313638 0 0 1 2.9406402,10.429987 c -0.1190068,0 -0.2428555,-0.0329 -0.3430046,-0.0673 -0.1391386,1.44898 -0.1978775,2.83374 -0.2186464,3.84339 l -2.548e-4,0.006 c -0.00255,0.51272 -0.0051,0.93434 -0.00765,1.52008 0.026757,3.04015 -0.3010846,9.85361 1.3404192,11.52773 2.5437385,0.59312 7.2245024,0.86324 11.9204294,0.8649 h 7.65e-4 c 4.695799,-0.002 9.376563,-0.27178 11.920302,-0.8649 1.641503,-1.67425 1.313661,-8.48771 1.340419,-11.52786 -0.0028,-0.58561 -0.0051,-1.00723 -0.0076,-1.52008 l -3.83e-4,-0.006 c -0.02064,-1.0099 -0.07938,-2.39454 -0.218518,-3.84351 -0.10015,0.0344 -0.223871,0.0673 -0.343005,0.0673 a 3.6313638,3.6313638 0 0 1 -2.5417,-1.0346197 c -0.237249,-0.23215 -0.466598,-0.47985 -0.631347,-0.76921 l -7.65e-4,-5.1e-4 c -0.164877,0.28873 -0.344661,0.53681 -0.5814,0.76858 a 3.6288155,3.6288155 0 0 1 -2.541573,1.0352497 c -0.987221,0 -1.882957,-0.39626 -2.536348,-1.0349997 a 3.570841,3.570841 0 0 1 -0.60905,-0.78425 3.5663815,3.5663815 0 0 1 -0.603443,0.78425 3.6300896,3.6300896 0 0 1 -2.541955,1.0351297 c -0.0344,0 -0.06881,-0.002 -0.103207,-0.003 h -8.92e-4 c -0.0344,0.001 -0.0688,0.003 -0.10359,0.003 a 3.6300896,3.6300896 0 0 1 -2.541954,-1.0349997 3.5666363,3.5666363 0 0 1 -0.603444,-0.78425 z m -2.6102497,3.3752597 -2.548e-4,10e-4 h 0.00191 c 1.0337285,0.002 1.9520175,0 3.0898445,1.2418 0.895482,-0.0939 1.831227,-0.14079 2.767737,-0.13939 h 7.64e-4 c 0.93651,-0.001 1.872255,0.0455 2.767864,0.13939 1.137827,-1.24192 2.056116,-1.23976 3.089844,-1.2418 h 0.0018 l -2.55e-4,-10e-4 c 0.488387,0 2.442061,0 3.803376,3.82338 l 1.462229,5.24509 c 1.083548,3.902 -0.346954,3.99743 -2.131292,4.00087 -2.646181,-0.0985 -4.111341,-2.02018 -4.111341,-3.94162 -1.464777,0.24005 -3.173557,0.36008 -4.882336,0.36021 h -7.65e-4 c -1.708907,0 -3.417686,-0.12016 -4.882337,-0.36021 0,1.92144 -1.4652869,3.84313 -4.1113406,3.94162 -1.7843375,-0.003 -3.2147126,-0.0987 -2.1311646,-4.00087 l 1.4626114,-5.24496 c 1.3613154,-3.82338 3.3149892,-3.82338 3.8033757,-3.82338 z m 5.8592377,3.00473 v 7.7e-4 c -0.0025,0.003 -2.785702,2.55851 -3.286066,3.46763 l 1.822562,-0.073 v 1.58939 c 0,0.0744 0.73137,0.0441 1.463504,0.0102 h 7.64e-4 c 0.731879,0.0339 1.463376,0.0642 1.463376,-0.0102 v -1.58939 l 1.822562,0.073 c -0.500491,-0.90912 -3.286065,-3.46763 -3.286065,-3.46763 v -7.7e-4 l -3.83e-4,2.6e-4 z"
     id="path2"
     style="color:#000000;fill:#1b1817;fill-opacity:0.49803922;stroke-width:0.12741627"
     inkscape:connector-curvature="0" />
</svg>
