<?xml version="1.0" encoding="UTF-8" standalone="no"?>
<!-- Generator: Adobe Illustrator 20.0.0, SVG Export Plug-In . SVG Version: 6.00 Build 0)  -->

<svg
   xmlns:dc="http://purl.org/dc/elements/1.1/"
   xmlns:cc="http://creativecommons.org/ns#"
   xmlns:rdf="http://www.w3.org/1999/02/22-rdf-syntax-ns#"
   xmlns:svg="http://www.w3.org/2000/svg"
   xmlns="http://www.w3.org/2000/svg"
   xmlns:sodipodi="http://sodipodi.sourceforge.net/DTD/sodipodi-0.dtd"
   xmlns:inkscape="http://www.inkscape.org/namespaces/inkscape"
   version="1.1"
   id="White"
   x="0px"
   y="0px"
   viewBox="0 0 30 30"
   xml:space="preserve"
   sodipodi:docname="twitter_logo.svg"
   inkscape:version="0.92.3 (2405546, 2018-03-11)"
   width="30"
   height="30"><metadata
   id="metadata11"><rdf:RDF><cc:Work
       rdf:about=""><dc:format>image/svg+xml</dc:format><dc:type
         rdf:resource="http://purl.org/dc/dcmitype/StillImage" /><dc:title></dc:title></cc:Work></rdf:RDF></metadata><defs
   id="defs9" /><sodipodi:namedview
   pagecolor="#ffffff"
   bordercolor="#666666"
   borderopacity="1"
   objecttolerance="10"
   gridtolerance="10"
   guidetolerance="10"
   inkscape:pageopacity="0"
   inkscape:pageshadow="2"
   inkscape:window-width="1920"
   inkscape:window-height="1025"
   id="namedview7"
   showgrid="false"
   inkscape:zoom="2.11"
   inkscape:cx="123.22275"
   inkscape:cy="200"
   inkscape:window-x="0"
   inkscape:window-y="27"
   inkscape:window-maximized="1"
   inkscape:current-layer="White"
   fit-margin-top="0"
   fit-margin-left="0"
   fit-margin-right="0"
   fit-margin-bottom="0" />
<style
   type="text/css"
   id="style2">
	.st0{fill:#FFFFFF;}
</style>
<path
   class="st0"
   d="M 30,15 C 30,23.2875 23.2875,30 15,30 6.7125,30 0,23.2875 0,15 0,6.7125 6.7125,0 15,0 23.2875,0 30,6.7125 30,15 Z m -17.745,7.9125 c 6.6525,0 10.29,-5.5125 10.29,-10.29 0,-0.1575 0,-0.315 -0.0075,-0.465 0.705,-0.51 1.32,-1.1475 1.8075,-1.875 -0.645,0.285 -1.3425,0.48 -2.0775,0.57 0.75,-0.45 1.32,-1.155 1.59,-2.0025 -0.6975,0.4125 -1.47,0.7125 -2.295,0.8775 -0.66,-0.705 -1.5975,-1.14 -2.64,-1.14 -1.995,0 -3.615,1.62 -3.615,3.615 0,0.285 0.03,0.5625 0.0975,0.825 -3.0075,-0.15 -5.67,-1.59 -7.455,-3.78 C 7.6425,9.78 7.4625,10.4025 7.4625,11.0625 7.4625,12.315 8.1,13.425 9.075,14.07 8.4825,14.055 7.9275,13.89 7.44,13.62 c 0,0.015 0,0.03 0,0.045 0,1.755 1.245,3.21 2.9025,3.5475 C 10.0425,17.295 9.72,17.34 9.39,17.34 9.1575,17.34 8.9325,17.3175 8.7075,17.2725 9.165,18.7125 10.5,19.755 12.0825,19.785 10.845,20.7525 9.285,21.33 7.59,21.33 c -0.2925,0 -0.5775,-0.015 -0.8625,-0.0525 1.5825,1.035 3.4875,1.635 5.5275,1.635"
   id="path4"
   style="fill:#1b1817;fill-opacity:0.49803922;stroke-width:0.075;image-rendering:auto"
   inkscape:connector-curvature="0" />
</svg>